<svg width="49" height="49" viewBox="0 0 49 49" fill="none" xmlns="http://www.w3.org/2000/svg">
<rect x="0.532227" y="0.601288" width="48" height="48" rx="24" fill="#7B2CBF"/>
<path fill-rule="evenodd" clip-rule="evenodd" d="M32.08 24.8497C30.2424 25.5937 28.2589 26.0526 26.1843 26.1715C25.8265 26.192 25.466 26.2024 25.1031 26.2024C24.7402 26.2024 24.3797 26.192 24.0219 26.1715C21.9468 26.0526 19.9629 25.5935 18.1249 24.8492C14.2679 23.2872 11.0539 20.4689 8.99048 16.9018C12.2067 11.342 18.2181 7.60129 25.1031 7.60129C31.9881 7.60129 37.9995 11.342 41.2157 16.9018C39.1521 20.4693 35.9376 23.2878 32.08 24.8497Z" fill="white"/>
<path d="M18.1247 26.2971C17.6804 26.1171 17.2446 25.9205 16.8181 25.708C15.432 26.6844 14.2602 27.9005 13.3779 29.2879C14.8776 31.6462 17.2135 33.5095 20.0169 34.5422C21.3527 35.0342 22.7946 35.3378 24.3028 35.4164H25.8744C27.3822 35.3378 30.0324 36.8316 26.1841 40.6012C28.9878 39.5686 35.2994 31.6465 36.7993 29.2879C35.9195 27.9044 34.7519 26.6913 33.371 25.7163C32.9494 25.9259 32.5188 26.1199 32.0798 26.2976C30.2422 27.0416 28.2587 27.5005 26.1841 27.6194C25.8263 27.6399 25.4658 27.6503 25.1029 27.6503C24.74 27.6503 24.3795 27.6399 24.0217 27.6194C21.9466 27.5005 19.9627 27.0414 18.1247 26.2971Z" fill="white"/>
<rect x="17.3335" y="14.5227" width="15.573" height="5.5618" rx="2.7809" fill="#162550"/>
<ellipse cx="29.4147" cy="17.2727" rx="1.01966" ry="1.01966" fill="#04FED1"/>
<ellipse cx="25.0885" cy="30.9917" rx="1.01966" ry="1.01966" fill="#162550"/>
<ellipse cx="21.0106" cy="17.2727" rx="1.01966" ry="1.01966" fill="#04FED1"/>
<ellipse cx="21.0106" cy="30.9917" rx="1.01966" ry="1.01966" fill="#162550"/>
<ellipse cx="29.1676" cy="30.9917" rx="1.01966" ry="1.01966" fill="#162550"/>
</svg>
