<svg width="73" height="73" viewBox="0 0 73 73" fill="none" xmlns="http://www.w3.org/2000/svg">
<path fill-rule="evenodd" clip-rule="evenodd" d="M52.4138 38.2342C48.3651 39.8575 43.995 40.8587 39.4241 41.1181C38.6358 41.1629 37.8416 41.1855 37.042 41.1855C36.2424 41.1855 35.4481 41.1629 34.6598 41.1181C30.0879 40.8586 25.7168 39.857 21.6674 38.233C13.1694 34.825 6.08824 28.6761 1.54199 20.8934C8.6281 8.76275 21.8726 0.601288 37.042 0.601288C52.2114 0.601288 65.4559 8.76275 72.542 20.8934C67.9952 28.677 60.913 34.8264 52.4138 38.2342Z" fill="white"/>
<path d="M21.6668 41.3921C20.6878 40.9995 19.7276 40.5705 18.788 40.1068C15.7341 42.2372 13.1525 44.8905 11.2085 47.9176C14.5127 53.063 19.6593 57.1282 25.8356 59.3814C28.7788 60.455 31.9557 61.1172 35.2786 61.2888H38.7413C42.0634 61.1173 47.9024 64.3765 39.4236 72.6012C45.6009 70.3482 59.5068 53.0635 62.8114 47.9176C60.873 44.8991 58.3005 42.2523 55.258 40.125C54.3292 40.5822 53.3804 41.0054 52.4132 41.3932C48.3646 43.0165 43.9944 44.0177 39.4236 44.2772C38.6353 44.3219 37.8411 44.3446 37.0415 44.3446C36.2419 44.3446 35.4476 44.3219 34.6593 44.2772C30.0874 44.0177 25.7163 43.0161 21.6668 41.3921Z" fill="white"/>
<rect x="19.9238" y="15.7025" width="34.3112" height="12.1348" rx="6.06741" fill="#162550"/>
<ellipse cx="46.5412" cy="21.7026" rx="2.24656" ry="2.22472" fill="#04FED1"/>
<ellipse cx="37.0098" cy="51.6349" rx="2.24656" ry="2.22472" fill="#162550"/>
<ellipse cx="28.0251" cy="21.7026" rx="2.24656" ry="2.22472" fill="#04FED1"/>
<ellipse cx="28.0251" cy="51.6349" rx="2.24656" ry="2.22472" fill="#162550"/>
<ellipse cx="45.9973" cy="51.6349" rx="2.24656" ry="2.22472" fill="#162550"/>
</svg>
